<?xml version="1.0" encoding="utf-8"?>
<!-- Generator: Adobe Illustrator 28.3.0, SVG Export Plug-In . SVG Version: 6.00 Build 0)  -->
<svg version="1.1" id="Capa_1" xmlns="http://www.w3.org/2000/svg" xmlns:xlink="http://www.w3.org/1999/xlink" x="0px" y="0px"
	 viewBox="0 0 226.77 226.77" style="enable-background:new 0 0 226.77 226.77;" xml:space="preserve">
<style type="text/css">
	.st0{fill:#A8754F;}
	.st1{fill:#A37859;}
	.st2{fill:#A9C837;}
	.st3{fill:#6B8449;}
	.st4{fill:#906F57;}
	.st5{fill:#817366;}
	.st6{fill:#AAC940;}
	.st7{fill:#B4CD47;}
</style>
<path class="st0" d="M94.29,58.07c-0.3-0.7-0.98-1.07-1.41-1.65c0.81-0.05,1.08,1.19,2.02,0.82C95.21,57.9,94.93,58.11,94.29,58.07"
	/>
<path class="st1" d="M135.64,72.12c-0.33-0.28-0.65-0.56-0.98-0.83C135.18,71.34,135.52,71.6,135.64,72.12"/>
<path class="st2" d="M159.9,85.61c-0.57-0.15-1.14-0.28-1.63-0.64C158.91,84.93,159.51,85.01,159.9,85.61"/>
<path class="st0" d="M111.65,56.4c0.46,0.22,0.75,0.59,0.88,1.08C112.08,57.25,111.76,56.92,111.65,56.4"/>
<path class="st0" d="M113.34,56.1c-0.51,0.52-0.83,0.15-1.13-0.26C112.59,55.93,112.97,56.02,113.34,56.1"/>
<path class="st0" d="M132.73,58.67c-0.07-0.36-0.1-0.75-0.64-0.63c0.09-0.53,0.31-1.16,0.91-0.74
	C133.59,57.71,133,58.23,132.73,58.67"/>
<path class="st0" d="M132.13,60c-0.01-0.46,0.17-0.84,0.53-1.13C132.65,59.33,132.44,59.69,132.13,60"/>
<path class="st3" d="M83.92,62.73c0.18,0.32,0.37,0.63,0.55,0.95C83.93,63.57,83.51,63.39,83.92,62.73"/>
<path class="st2" d="M76.03,59.42c-0.28,0.03-0.55,0.05-0.83,0.08c-0.17-0.1-0.33-0.21-0.5-0.31
	C75.17,59.16,75.63,59.13,76.03,59.42"/>
<path class="st0" d="M111.65,56.4L111.65,56.4c0.31,0.35,0.57,0.73,0.88,1.08c1.52,1.5,2.05,3.28,1.53,5.68
	c-1.17-1.68-2.96-2.4-3.52-4.21c-0.17-0.25-0.11-0.53-0.12-0.8c-0.01-0.37,0.03-0.81-0.42-0.91c-0.53-0.12-0.51,0.42-0.67,0.7
	c-0.74,1.39-0.45,2.65,0.55,3.8c0.42,0.49,0.88,0.94,1.3,1.43c1.93,1.01,2.75,2.75,3.12,4.77c0.13,0.72,0.29,1.32,1.03,1.47
	c0.23,1.48,0.45,2.96,0.69,4.44c0.06,0.34-0.02,0.9,0.46,0.89c0.51-0.01,0.58-0.51,0.51-0.96c-0.32-0.46-0.23-0.72,0.35-0.77
	c0.89-1.34,0.8-2.8,0.51-4.28c-0.8-1.32-1.15-2.82-1.65-4.26v0c-0.22-1.88-0.29-3.81-1.29-5.5c-1.23-2.08-1.24-2.06,0.35-3.96
	c0.86-1.02,1.88-1.92,2.15-3.35c0.18-0.98-0.08-2.18,1.19-2.73c0.12-0.05,0.06-0.51,0.08-0.79c-0.6,1.08-1.38,1.41-2.44,0.59
	c-0.33-0.25-0.67-0.49-1.13-0.39c2.16,1.37,2.36,3.1,0.55,4.99c-0.84,0.88-1.75,1.68-2.3,2.79c-0.48,0.35-0.76-0.14-1.13-0.26l0,0
	c-1.38-1.62-3.4-1.94-5.22-2.68C108.33,54.59,110.3,55.04,111.65,56.4z"/>
<path class="st0" d="M137.5,73.78c-0.74-0.03-1.28-0.44-1.79-0.92c-1.11,1.05-2.59,1.17-3.96,1.54c-0.76,0.21-1.02,0-0.99-0.78
	c0.07-2.05,0.05-4.09,1.75-5.66c0.53-0.49,0.81-1.23,1.24-1.84c0.52-0.76,1.16-1.3,2.19-1.19c1.72,0.18,3.42,0.03,5.09-0.45
	c1.17-0.18,2.22-0.65,3.14-1.41c0.54-0.34,1.09-0.68,1.63-1.03c0.19-0.12,0.43-0.29,0.14-0.51c-0.12-0.09-0.35-0.03-0.53-0.04
	l-0.03,0c-1.15,0.16-2.42-0.14-3.39,0.8c-0.42,0.51-0.77,1.1-1.43,1.37c-0.11,0.08-0.21,0.16-0.32,0.24
	c-1.74,0.52-3.46-0.1-5.19-0.12c-0.15-0.02-0.3-0.02-0.46,0c-0.75,0.27-1.48,0.58-2.01,1.21c-1.85,2.18-4.22,4.01-4.55,7.18
	c-0.07,0.7-0.45,1.51-1.38,1.54c-0.86,0.03-1.35,0.54-1.81,1.14c-2.17,1.35-4.27,2.78-5.95,4.74c-0.23,0.28-0.52,0.38-0.88,0.42
	c0-0.62,0.23-1.06,0.39-1.52c0.87-1.4,1.61-2.85,1.99-4.47c0.42-1.78,0.44-3.67,1.4-5.3c0,0,0,0,0,0c1.2-1.18,2.51-2.21,3.95-3.08
	c2.82-1.1,4.79-3.17,6.4-5.65c0.22-0.36,0.3-0.78,0.53-1.13c0.03-0.07,0.05-0.13,0.06-0.21c0.13-0.3,0.25-0.63-0.07-0.86
	c-0.22-0.16-0.41,0.07-0.57,0.23c-0.06,0.07-0.13,0.13-0.18,0.2c-1.95,2.98-4.16,5.64-7.94,6.3c-1.49,0.98-3.06,1.85-4.18,3.29
	c-0.21,0.48-0.41,0.96-0.62,1.44c-0.15,0.91-0.51,1.76-0.83,2.62c-1.04,2.75-2.03,5.51-3.04,8.27c-0.91,2.14-1.87,4.26-2.7,6.43
	c-0.37,0.97-1.49,2.2-0.85,2.88c0.64,0.69,2.1-0.11,3.21-0.11c0.63-0.01,0.84-0.39,0.97-0.97c0.3-1.27,0.65-2.53,1.05-3.76
	c0.74-2.25,2.56-3.59,4.25-5.03c-0.15,0.53-0.4,0.97-0.71,1.36c-1.62,2-2.61,4.28-3.27,6.75c-0.45,1.67-0.3,1.91,1.38,1.93
	c0.75,0.01,1.5-0.02,2.24,0.04c0.82,0.07,0.94-0.37,0.87-1.02c-0.71-2.1-0.5-4.15,0.6-6.04c2.4-4.12,6.15-6.31,10.71-7.28
	C134.6,75.01,136.15,74.69,137.5,73.78"/>
<path class="st4" d="M141.97,62.31C141.97,62.31,141.97,62.31,141.97,62.31c0.01-0.01,0.01-0.01,0.02-0.02L141.97,62.31z"/>
<path class="st0" d="M144.29,77c-0.59,0.12-0.6-0.43-0.68-0.83c-2.7,3.65-5.02,4.35-9.21,2.76c-1.71-0.65-2.94-0.43-4,0.72
	c0.36,0.25,0.75,0.1,1.07-0.02c1.02-0.37,1.95-0.17,2.8,0.4c1.99,1.32,4.54,1.32,6.47,2.77c0.07,0.05,0.22,0.01,0.33,0.01
	c0-0.32-0.2-0.38-0.34-0.5c-1.2-1.01-1.2-1.02,0.12-1.74c0.82-0.45,1.67-0.83,2.46-1.33c1.33-0.84,2.57-1.87,4.31-1.64
	c0.31,0.04,0.65-0.08,0.81-0.44C147.03,77.4,145.69,76.72,144.29,77"/>
<path class="st0" d="M115.21,73.64c-0.33-2.15-0.79-4.1-2.65-5.44c-0.04-0.72-0.6-0.87-1.13-1.05c-1.49-0.52-2.97-1.11-4.58-1.16
	c-0.55-0.35-1-0.77-1.09-1.46c-0.09-0.35-0.08-0.83-0.3-1.05c-1.11-1.09-0.57-2.2-0.11-3.31c0.9-2.18,0.38-3.98-1.84-5.56
	c0.5,1.02,0.93,1.82,1.3,2.65c0.42,0.94,0.49,1.85-0.24,2.73c-1.04,1.25-1.02,2.61-0.2,3.98c0,0.81-0.16,1.22-0.98,0.49
	c-1.02-0.92-1.9-1.89-2.31-3.26c-0.24-0.82-0.66-1.58-1-2.37c0.01,2.73,0.94,4.72,2.79,6.34c0.31,0.27,0.13,0.37-0.11,0.49
	c-1.45-0.1-2.32-0.82-2.86-2.22c-0.47-1.22-1.32-2.27-2.53-2.95c0.5,0.99,1.09,1.9,1.65,2.83c0.3,0.51,0.86,1.12,0.44,1.63
	c-0.39,0.47-1.13,0.18-1.72,0c-1.43-0.43-2.85-0.86-4.28-1.29c0.03-1.07,0.06-2.13,0.1-3.2c0.01-0.31-0.1-0.82,0.27-0.84
	c1.63-0.11,0.74-0.91,0.48-1.56c-0.79-0.17-1.05,0.05-1.23,0.94c-0.26,1.36,0.13,2.79-0.48,4.1c-0.7,0.65-1.21,0.66-1.7-0.3
	c-0.6-1.18-1.05-2.37-1.11-3.69c-0.03-0.51,0-1.04-0.52-1.36c0.07,0.69-0.53,0.82-0.93,1.12c1.44,0.35,0.81,1.66,1.14,2.52
	c0.07,0.17-0.11,0.32-0.35,0.29c-1.08-0.15-0.46,0.49-0.32,0.77c0.76,1.53,0.78,1.52-0.96,1.51c-0.19,0-0.37,0.01-0.56,0.02
	c-0.98-0.8-1.81-1.98-3.36-1.24c-0.25,0.57,0.29,0.68,0.55,0.95l0,0c0.55,1.14,1.65,1.55,2.68,2.07C88,66.08,88.9,65.97,89.78,66
	c1.25,0.05,2.53-0.14,3.76,0.16c4.1,0.99,8.37,1.15,12.37,2.68c1.45,0.56,2.69,1.31,3.6,2.52c0.75,1,1.53,2,2.01,3.18
	c0.16,0.52,0.15,1.1,0.52,1.56c0.5,0.65,0.14,1.48,0.49,2.17c-0.45-0.38-0.98-0.58-1.39-0.96c-1.92-1.13-4.19-1.58-5.92-3.08
	c-0.14-0.12-0.33-0.17-0.52-0.18c-2.79-0.19-5.57-0.38-8.35-0.02c-0.4,0.05-0.69,0.26-0.87,0.62c0.38,0.91-0.1,1.22-0.91,1.33
	c-0.34,0.04-0.7-0.27-1.03,0.03c0.06,0.56,0.44,0.79,0.94,0.87c1.2,0.19,2.39,0.48,3.61,0.23c0.56-0.11,1.11-0.16,1.64,0.13
	c0.1,0.07,0.2,0.12,0.3,0.17c-0.09,0.05-0.22,0.08-0.38,0.06c-1.15-0.13-2.1,0.31-2.95,1.01c-1.24,1.02-2.68,1.47-4.26,1.5
	c-2.19,0.04-4.16,0.7-6.14,1.66c-1.59,0.77-3.13,1.93-5.09,1.64c0.21,0.48-0.04,0.95-0.03,1.43c0.42-0.36,0.79-0.76,1.42-0.81
	c1.27-0.09,2.45-0.5,3.6-1.04c2.45-1.17,4.96-2.15,7.72-2.24c1.42-0.05,2.5-0.94,3.73-1.47c1.29-0.55,2.58-1.15,3.96-1.4
	c0.59,0.05,1.17,0.1,1.69,0.39c0.11,0.07,0.23,0.13,0.36,0.17c0.49,0.13,0.86,0.44,1.19,0.81c2.22,1.1,3.5,3.11,4.87,5.04
	c0.69,1.58,0.52,3.19,0.17,4.82c-0.06,0.29-0.67,1.02,0.41,0.74c0.72-2.12,1.68-4.13,2.79-6.07
	C114.86,80.54,115.77,77.29,115.21,73.64"/>
<path class="st0" d="M137.35,59.73c0.56-0.29,1.22-0.46,1.63-1.4c-2.81,0.88-4.82,2.44-6.85,3.97c0.45,0.8,1.1,0.15,1.66,0.23
	c1.11,0.63,2,0.18,2.82-0.59c1.79-0.55,3.57-1.13,4.59-2.9c0.31-0.55,1.38-1.17,0.73-1.65c-0.63-0.47-1.07,0.66-1.41,1.2
	c-1.12,1.79-2.8,2.21-5.01,2.27C136.14,60.14,136.8,60.01,137.35,59.73"/>
<path class="st0" d="M123.69,63.95c-0.41-2.21,0.78-4.28,0.57-6.47c-0.12-0.43-0.23-0.86-0.35-1.29c-0.12,1.49-0.52,2.77-1.61,3.88
	C120.85,61.54,121.56,63.43,123.69,63.95"/>
<path class="st2" d="M176.4,76.1c-0.77-0.42-1.54-0.83-2.24-1.56c0.69-0.43,1.49-0.9,1.24-1.71c-0.31-0.99-0.38-1.97-0.41-2.98
	c-0.01-0.28-0.22-0.51-0.51-0.61c-0.09-0.11-0.25-0.22-0.25-0.32c0.09-1.47-0.68-1.56-1.81-1.21c-0.29,0.09-0.65,0.05-0.97-0.02
	c-0.62-0.14-1.1-0.43-0.62-1.15c0.67-1.03-0.02-0.97-0.7-0.88c-0.7,0.09-1.36,0.13-1.89-0.55c0.43-0.34,0.88-0.6,1.22-0.96
	c0.49-0.52,0.83-1.2,0.62-1.89c-0.19-0.62-0.89-0.27-1.35-0.39c-0.6-0.16-1.2-0.35-1.79-0.52c0.13-0.6,1.12-0.57,0.84-1.2
	c-0.23-0.53-0.9-0.33-1.4-0.35c-0.09,0-0.19,0-0.28,0c-0.65,0.1-0.82-0.19-1.43-0.64c-0.53-0.39-0.76-1.15-1.37-1.44
	c0.01-0.04,0.02-0.07,0.02-0.11c-0.48-1.32-0.94-2.65-0.66-4.09c0.03-0.17-0.15-0.33-0.24-0.48c-0.31-1.26-1.17-0.71-1.89-0.55
	c-0.47,0.1-0.8,0.68-1.48,0.44c0.52-0.47,1.05-0.73,1.62-0.94c0.31-0.12,0.64-0.29,0.54-0.68c-0.11-0.42-0.51-0.32-0.82-0.32
	c-0.95-0.03-1.71,0.43-2.36,1.04c-0.9,0.84-1.52,0.62-1.62-0.52c-0.13-1.45-0.67-1.65-1.81-0.91c-0.24,0.16-0.58,0.21-0.75-0.06
	c-0.23-0.35,0.03-0.63,0.3-0.81c0.22-0.15,0.51-0.21,0.76-0.32c0.98-0.46,0.69-0.81-0.09-1.13c-1.72-1.04-3.53-1.65-5.37-1.81
	c1.4-0.17,2.65-1,3.36-2.26c0.33-0.58,0.66-1.21,0.05-1.78c-0.53-0.5-1.14-0.33-1.66,0.05c-1.17,0.83-2.4,1.06-3.51,0.62
	c1.26-0.1,2.36-1.08,3.58-1.77c0.2-0.11,0.2-0.41,0.2-0.65c0.51-1.26,0.28-1.68-1.02-1.56c-1.75,0.17-3.54,0.18-5.2,0.91
	c-0.39,0.17-0.85,0.32-1.22,0.11c-0.7-0.4-1.27-0.21-1.96,0.04c-0.85,0.3-1.53,0.33-1.9-1c-0.27-0.96-0.43-1.98-0.81-2.92
	c-0.6-1.46-1.8-2.46-2.7-3.69c-0.22-1.46-1.51-2.29-2.77-1.63c-0.78,0.41-1.12,0.32-1.51-0.42c-0.25-0.48-0.76-0.77-1.29-0.69
	c-0.97,0.15-1.58-0.35-2.2-0.95c-0.8-0.77-1.6-0.78-2.47-0.06c-2.28,1.89-4.82,1.35-5.98-1.28c-0.44-1-1.21-1.41-2.11-1.08
	c-0.95,0.36-1.98,0.44-2.89,0.94c-0.88,0.49-1.81,0.99-2.82,0.15c-0.25-0.21-0.63-0.12-0.92,0.09c-0.75,0.48-0.34,1.63-1.18,2.07
	c-0.11,0.05-0.23,0.09-0.33,0.16c-1.29,0.86-2.49,2-4.26,1.52c-0.06,0.02-0.12,0.04-0.18,0.05c-0.49,0.1-1.06,0.07-1.18,0.74
	c-0.19,1-0.91,1.15-1.78,1.13c-0.68-0.01-1.46-0.25-2,0.32c-0.92,0.96-1.77,0.71-2.73,0.09c-0.3-0.2-0.63-0.57-1.05-0.35
	c-0.91,0.63,2.18,1.97-0.45,2.28c-0.24,0.21-0.34,0.54-0.61,0.74c-0.91,0.68-0.91,1.41-0.12,2.18c0.21,0.22,0.47,0.33,0.75,0.41
	c-0.18-0.05-0.35-0.11-0.54-0.12c-0.18,0-0.37,0-0.55,0.03c-2.43,1.21-5.04,1.42-7.7,1.32c-1.01-0.04-1.51,0.7-2.05,1.36
	c-0.23,0.32-0.59,0.43-0.93,0.56c-1.44,0.37-3.15,3.36-2.72,4.76c0.01,0.02,0.03,0.06,0.05,0.13c0.13,0.48,0.87,0.89,0.22,1.47
	c-0.61,0.54-1.12,0.05-1.65-0.19c-0.51-0.23-1.26-0.29-1.36,0.21c-0.28,1.37-1.24,1.82-2.35,2.25c-0.44,0.17-0.55,0.71-0.79,1.11
	c-0.38,0.65-0.59,1.52-1.56,1.63c-1.08,0.13-1.67,0.71-1.71,1.84c-0.04,1.2,0.81,1.44,1.69,1.67c0.53,0.12,1.06,0.26,1.59,0.37
	c0.52,0.03,1.03,0.08,1.54,0.19c0.13,0.03,0.27,0.1,0.4,0.11c2.78,0.03,5.21,0.93,7.26,2.84c0.49,0.46,1.16,0.52,1.6-0.05
	c0.46-0.6,1.11-0.8,1.69-1.15c0.39-0.39,0.78-0.78,1.02-1.29c0.72-1.12,1.8-1.04,2.91-0.86c0.75,0.04,1.34,0.72,2.15,0.51
	c0.12-0.04,0.23-0.08,0.35-0.12c0.35-0.1,0.71-0.13,1.06-0.21c1.35-0.21,2.67-0.6,2.92-2.14c0.19-1.22,0.92-1.56,1.9-1.63
	c0.77-0.06,1.39-0.3,2.05-0.73c0.71-0.47,1.54-0.96,2.43-0.93c2.13,0.07,3.79-1.4,5.79-1.7c0.17-0.02-0.06-0.02,0.12-0.07
	c1.19-0.31,2.21-1.18,3.53-1.07c1.41,0.21,2.84,1.03,4.2-0.15c0.48-0.29,0.92-0.32,1.39,0.21c-1.43,0.91-1.16,2.41-1.35,3.68
	c-0.12,0.84,0.61,1.22,1.43,1c0.78-0.21,1.55-0.28,2.35-0.21c0.67,0.02,1.24,0.4,1.87,0.57c0.46,0.02,0.75-0.25,1.06-0.55
	c0.72-0.71,1.6-0.64,2.21,0.14c0.29,0.37,0.38,0.83,0.54,1.26c0.28,0.73,0.92,0.87,1.6,0.94c0.29,0.02,0.58,0.05,0.79,0.28
	c0.61,0.41,1.29,0.55,2.01,0.57c0.73,0.12,1.56,0.41,2.16-0.12c0.93-0.83,2.04-0.99,3.17-1.27c0.85-0.21,1.31-0.1,1.67,0.69
	c0.23,0.5,0.69,0.83,1.25,0.7c1.3-0.3,2.48,0.22,3.71,0.43c0.09,0,0.19-0.01,0.28-0.01c0.57,0.01,1.27-0.56,1.68,0.01
	c0.43,0.6-0.42,0.9-0.68,1.36c-0.68,1.21,0.17,2.8,1.51,3.17c1.19,0.32,2.19-0.45,3.2-0.39c2.24,0.13,4.43-0.31,6.64-0.29
	c0.06-0.02,0.13-0.03,0.19-0.05c0.27,0.12,0.58,0.23,0.66,0.59c-1.08,0.33-2.13,0.65-3.16,1.04c-0.3,0.11-0.67,0.06-0.96-0.09
	c-2.26-1.16-4.02,0.79-6.06,0.99c-0.12,0.01-0.24,0.15-0.31,0.27c-0.82,1.47-2.59,1.29-3.78,2.13c-0.34,0.24-1.07,0.27-1.35,0.05
	c-1.27-1.04-2.52-0.46-3.82-0.17c-1.84,0.4-3.85,0.47-4.4,2.86c-0.05,0.21-0.27,0.37-0.44,0.54c-0.78,0.8-0.88,1.61-0.02,2.43
	c0.35,0.24,0.62,0.55,0.83,0.91c0.13,0.24,0.29,0.46,0.42,0.7c0.42,0.72,1.19,0.8,1.88,1.04c1.72-0.26,3.15-1.23,4.67-1.93
	c0.87-0.4,1.3-0.24,1.6,0.57c0.26,0.71,0.37,1.43-0.07,2.13c-0.3,0.48-0.47,1-0.3,1.58c0.13,0.65,0.6,1.05,1.2,0.92
	c1.26-0.28,2.51,0.11,3.76-0.03c0.87-0.11,1.58-0.67,2.47-0.79c0.52-0.07,0.84-0.54,0.9-1.1c0.05-0.58-0.28-0.91-0.76-1.19
	c-0.07-0.04-0.14-0.06-0.21-0.08c1.22,0.36,2.37,0.92,3.61,1.2c0.12,0.05,0.25,0.06,0.38,0.05c0.33-0.12,0.65-0.27,0.96-0.41
	c-0.23,0.12-0.46,0.24-0.7,0.34c-0.17,0.14-0.29,0.32-0.33,0.53c-0.05,0.4,0.13,0.72,0.42,0.98c0.27,0.11,0.55,0.23,0.83,0.3
	c-0.86,0.24-1.74,0.5-2.63,0.73c-0.77,0.37-1.38,0.87-1.17,1.82c0.19,0.88,0.89,1.05,1.69,1.17c0.83,0.13,1.65,0.22,2.49,0.27
	c0.69,0.04,1.41,0,2.02,0.43c1.52,1.07,3.07,2.13,3.92,3.87c0.42,0.85,1.3,1.35,1.92,0.91c1.37-0.95,2.91-1.46,4.35-2.21
	c0.12-0.06,0.17-0.22,0.25-0.33c0.66-0.84,1.48-0.97,2.33-0.4c0.75,0.51,1.52,0.64,2.38,0.5c0.42-0.18,0.83-0.38,0.96-0.87
	c0.11-0.55-0.15-0.97-0.43-1.42c-0.74-1.18-0.66-1.4,0.65-1.58c0.58-0.08,1.03-0.41,1.57-0.53c0.86-0.2,1.41-0.69,1.5-1.6
	C177.65,77.21,177.2,76.55,176.4,76.1 M147.56,46.45c0.18-0.06,0.37-0.09,0.56-0.05c0.03,0.01,0.05,0,0.08,0.01
	C147.99,46.41,147.78,46.43,147.56,46.45 M148.95,74c0.11,0.04,0.3,0.07,0.47,0.13c0.04,0,0.08,0.01,0.12,0.02
	C149.33,74.12,149.13,74.08,148.95,74 M157.46,76.97c0.69-0.27,1.38-0.29,1.97-0.27C158.8,76.73,158.14,76.83,157.46,76.97"/>
<path class="st2" d="M93.74,72.66c-1.85-0.85-3.73-1.63-5.55-2.54c-0.53-0.26-0.9-0.84-1.6-0.74c-1.17-0.18-2.36-0.45-2.68,1.26
	c-0.06,0.35-0.56,0.22-0.87,0.28c-1.25,0.25-2.62-0.15-3.78,0.69c-0.23,0.17-0.69,0.11-0.73-0.17c-0.19-1.42-1.43-2.06-2.25-2.99
	c0.23-0.23,0.45-0.25,0.59-0.18c1.58,0.8,3.09-0.13,4.64-0.17c0.66-0.02,1.22-0.49,1.39-1.2c0.17-0.7-0.39-1-0.84-1.31
	c-0.39-0.27-0.75-0.55-0.96-0.98c-0.6-1.05-0.42-2.84-2.45-2.55c-0.25,0.03-0.36-0.47-0.55-0.56c-1.08-0.48-1.41-1.91-2.7-2.08
	c-0.22-0.12-0.51-0.02-0.7-0.23c0,0-0.06-0.04-0.06-0.03c-1.75-0.19-3.48-0.1-4.9,1.05c-0.63,0.52-0.91,0.42-1.48-0.03
	c-1.9-1.51-1.92-1.48-3.98-0.29c-0.08,0.05-0.16,0.1-0.25,0.11c-1.33,0.24-2.05,1.15-2.52,2.33c-0.42,0.46-0.03,1.25-0.66,1.62
	c-0.08,0.16-0.25,0.33-0.24,0.49c0.08,1.24-0.54,1.77-1.67,2.26c-0.84,0.37-1.46,1.39-1.85,2.33c-0.36,0.85,0.27,2.18,1.11,2.38
	c1.25,0.3,0.66,0.82,0.18,1.31c-1.12,1.13-1.18,2.2-0.16,3.4c0.77,0.91,0.51,1.72-0.66,1.85c-1.19,0.13-2.6-0.26-2.73,1.61
	c0,0.06-0.14,0.11-0.21,0.17c-1.57,1.27-1.58,2.3-0.01,3.49c0.32,0.25,0.51,0.5,0.37,0.95c-0.13,0.44-0.19,0.9-0.27,1.36
	c-0.05,0.2,0,0.38,0.13,0.54c0.41,0.3,0.84,0.58,1.28,0.85c0.18,0.08,0.37,0.14,0.57,0.15c1.98-0.14,3.89,0,5.54,1.27
	c0.61,0.29,1.11,0.83,1.84,0.82c0.55-0.01,0.63,0.42,0.83,0.76c0.1,0.1,0.21,0.18,0.33,0.24c1.41,0.39,2.73-0.28,3.2-1.82
	c0.3-0.98,0.93-1.49,1.65-2.12c0.98-0.84,2.1-0.61,3.15-0.86c1.52-0.36,2.71-0.11,3.8,1.23c1.35,1.67,3.59,1.34,4.46-0.45
	c0.21-0.43,0.24-0.9,0.37-1.34c0-0.56-0.06-1.12-0.15-1.67c0-0.42-0.13-0.82-0.23-1.23c-0.23-0.99-0.12-1.48,1.11-1.83
	c1.93-0.54,4.03-1.26,3.71-3.88c2.55,0.2,4.96,0.03,7.32,0.46c0.46,0,0.89-0.17,1.32-0.29c1.01-0.29,1.43-0.9,0.98-1.94
	C95.59,73.36,94.62,73.06,93.74,72.66"/>
<path class="st2" d="M159.9,85.61c-0.45-0.44-1.12-0.34-1.62-0.64c-2.02-0.3-3.28-2.14-5.18-2.62c-1.71-0.43-3.28-1.49-5.15-1.21
	c-0.92,0.14-1.82,0.42-2.57-0.51c-0.34-0.42-0.78-0.11-1.07,0.23c-0.27,0.32-0.51,0.67-0.76,1c-0.41,0.42-0.96,0.83,0.1,1.13
	c0.17,0.05,0.21,0.27,0.27,0.43c0.8,0.56,1.54-0.23,2.4-0.11c1.73,0.24,3.18,1.22,4.87,1.48c1.26,0.19,2.41,0.69,3.44,1.45
	c1.1,0.82,2.29,1.2,3.65,0.7c0.45-0.4,0.87-0.83,1.57-0.73c0.23,0.03,0.47-0.09,0.27-0.41C160.04,85.75,159.97,85.68,159.9,85.61"/>
<path class="st2" d="M75.91,86.98c-2.05-0.64-2.6-0.45-3.72,1.47c-0.42,0.72-0.83,1.47-1.1,2.25c-0.47,1.36-1.52,2.2-2.59,2.97
	c-0.54,0.4-0.99,0.81-1.36,1.34c0.18,0.02,0.37,0.04,0.55,0.07c0.61-0.08,1.12-1.36,1.54-0.67c0.66,1.06,1.18,1.36,2.26,0.74
	c0.16-0.09,0.55,0.27,0.85,0.37c0.44,0.15,1.3,0.11,1.22-0.13c-0.44-1.22,1.04-2.47-0.23-3.67c-0.62-0.58-0.78-1.39,0.54-1.67
	c1.18-0.25,1.71-1.36,2.37-2.25C76.55,87.41,76.38,87.12,75.91,86.98"/>
<path class="st5" d="M105.18,78.61c-0.58-0.09-1.01-0.41-1.33-0.89C104.43,77.81,104.85,78.14,105.18,78.61"/>
<path class="st6" d="M60.81,90.52l-2.57,2.02c0.39-1.34,1.3-1.95,2.6-2C60.84,90.55,60.81,90.52,60.81,90.52"/>
<path class="st0" d="M207.62,132.34v0.01c-3.91,19.02-13.47,35.97-26.83,49.04l-2.64-3.63c12.68-12.59,21.68-28.88,25.26-47.1
	C204.67,131.13,206.34,131.81,207.62,132.34"/>
<path class="st0" d="M207.33,92.16v0.01l-3.44,5.67c-3.11-18.81-11.98-35.67-24.74-48.74l0.7-5.57
	C193.39,56.43,203.16,73.24,207.33,92.16"/>
<path class="st0" d="M114.07,17.1l-2.1,4.47c-45.62,0.88-83.06,35.2-88.81,79.47h-4.48c5.85-47.32,46.19-83.94,95.09-83.94H114.07z"
	/>
<path class="st0" d="M74.71,167.1l2.95-1.17c21.76,19.63,54.38,20.01,76.52,1.79l2.1,1.97c-23.53,19.6-58.52,19.03-81.43-2.46
	L74.71,167.1z"/>
<path class="st0" d="M113.77,8.07C55.86,8.07,8.92,55.01,8.92,112.92s46.94,104.85,104.85,104.85s104.85-46.94,104.85-104.85
	S171.68,8.07,113.77,8.07 M113.77,212.9c-55.22,0-99.98-44.77-99.98-99.98c0-55.22,44.76-99.98,99.98-99.98s99.98,44.76,99.98,99.98
	C213.75,168.13,168.99,212.9,113.77,212.9"/>
<path class="st7" d="M66.67,188.2c0.54-1.25,0.81-1.87,1.35-3.11c1.03-2.38,3.47-3.16,6.17-2.12c2.7,1.04,3.99,3.17,3.2,5.48
	c-0.03,0.1-0.16,0.12-0.37,0.07c-1.04-0.29-1.56-0.44-2.6-0.75c-0.21-0.06-0.33-0.16-0.31-0.2c0.01-0.04,0.02-0.06,0.04-0.09
	c0.32-0.85-0.06-1.63-0.94-1.97c-0.88-0.34-1.68-0.01-2.02,0.83c-0.54,1.34-0.81,2.01-1.35,3.35c-0.33,0.83,0.05,1.64,0.98,2
	c0.93,0.36,1.76,0.02,2.07-0.81c0.04-0.11,0.21-0.14,0.41-0.04c1.02,0.43,1.54,0.65,2.57,1.06c0.21,0.09,0.3,0.14,0.29,0.19
	c-0.01,0.03-0.02,0.05-0.03,0.08c-0.79,2.32-3.32,3.21-6.29,2.06S65.63,190.59,66.67,188.2"/>
<path class="st7" d="M77.25,192.14c0.4-1.2,0.6-1.8,1-3c0.84-2.52,3.24-3.58,6.03-2.78c2.81,0.81,4.27,2.98,3.64,5.56
	c-0.3,1.23-0.45,1.84-0.75,3.07c-0.64,2.63-3.14,3.9-6.24,3.01C77.86,197.11,76.4,194.71,77.25,192.14 M83.8,194.22
	c0.35-1.27,0.52-1.91,0.87-3.18c0.27-0.99-0.18-1.81-1.14-2.08c-0.93-0.27-1.76,0.18-2.05,1.17c-0.38,1.26-0.57,1.89-0.95,3.15
	c-0.3,0.98,0.17,1.83,1.16,2.11C82.69,195.68,83.53,195.21,83.8,194.22"/>
<path class="st7" d="M88.02,195.88c0.01-0.06,0.02-0.1,0.04-0.16c0.05-0.2,0.2-0.28,0.41-0.23c1.05,0.24,1.58,0.36,2.64,0.58
	c0.21,0.04,0.33,0.14,0.31,0.23c-0.01,0.07-0.02,0.11-0.04,0.18c-0.11,0.56,0.49,1.32,1.62,1.54c1.02,0.2,1.35-0.28,1.41-0.59
	c0.11-0.63-0.75-0.92-1.99-1.54c-1.58-0.79-3.86-2.23-3.3-4.58c0.5-2.11,2.69-3.02,5.21-2.53c2.65,0.52,4.47,2.36,4.12,4.67
	c-0.01,0.03-0.01,0.05-0.01,0.08c-0.03,0.2-0.17,0.3-0.38,0.26c-1.04-0.16-1.55-0.25-2.59-0.43c-0.21-0.04-0.32-0.11-0.31-0.19
	c0.01-0.05,0.01-0.08,0.02-0.13c0.11-0.6-0.37-1.41-1.49-1.63c-0.74-0.15-1.26,0.07-1.36,0.57c-0.12,0.59,0.46,0.98,2.2,1.87
	c1.15,0.59,3.69,1.56,3.31,4.07c-0.33,2.18-2.61,3.29-5.61,2.71C89.17,200.04,87.49,198.11,88.02,195.88"/>
<path class="st7" d="M109.38,191.18c-0.05,0.83-0.08,1.25-0.13,2.08c-0.01,0.2-0.14,0.31-0.35,0.3c-1.13-0.08-1.69-0.12-2.82-0.22
	c-0.09-0.01-0.14,0.04-0.15,0.12c-0.31,3.42-0.47,5.13-0.78,8.56c-0.02,0.2-0.16,0.31-0.39,0.29c-1.13-0.11-1.69-0.17-2.82-0.3
	c-0.22-0.03-0.34-0.16-0.32-0.36c0.41-3.41,0.61-5.12,1.02-8.53c0.01-0.08-0.04-0.14-0.12-0.15c-1.09-0.13-1.63-0.2-2.72-0.36
	c-0.21-0.03-0.31-0.16-0.29-0.36c0.12-0.83,0.18-1.24,0.3-2.06c0.03-0.2,0.17-0.3,0.37-0.27c3.55,0.51,5.33,0.69,8.9,0.93
	C109.28,190.85,109.39,190.98,109.38,191.18"/>
<path class="st7" d="M116.91,202.6c-0.15-0.48-0.22-0.73-0.37-1.21c-0.02-0.07-0.09-0.12-0.17-0.12c-1.55-0.01-2.33-0.02-3.88-0.08
	c-0.07,0-0.15,0.04-0.17,0.11c-0.17,0.48-0.25,0.72-0.42,1.19c-0.06,0.18-0.2,0.26-0.41,0.25c-1.22-0.05-1.83-0.09-3.05-0.17
	c-0.24-0.02-0.37-0.16-0.28-0.39c1.87-4.34,2.73-6.52,4.33-10.92c0.06-0.17,0.18-0.26,0.37-0.26c1.41,0.05,2.12,0.06,3.54,0.07
	c0.19,0,0.31,0.1,0.36,0.27c1.42,4.46,2.2,6.67,3.89,11.08c0.08,0.23-0.05,0.37-0.29,0.38c-1.22,0.03-1.84,0.04-3.06,0.04
	C117.1,202.87,116.96,202.79,116.91,202.6 M113.34,198.8c0.91,0.03,1.36,0.04,2.27,0.04c0.09,0,0.15-0.07,0.13-0.15
	c-0.45-1.56-0.67-2.34-1.1-3.9c-0.03-0.12-0.14-0.12-0.18,0c-0.49,1.54-0.74,2.32-1.25,3.85C113.2,198.73,113.25,198.8,113.34,198.8
	"/>
<path class="st7" d="M132.2,201.74c-1.01-1.57-1.5-2.36-2.45-3.94c-0.05-0.08-0.12-0.09-0.19-0.08c-0.26,0.03-0.39,0.04-0.65,0.06
	c-0.09,0.01-0.14,0.06-0.13,0.15c0.15,1.62,0.23,2.43,0.38,4.05c0.02,0.2-0.1,0.33-0.33,0.35c-1.13,0.1-1.69,0.15-2.83,0.23
	c-0.23,0.02-0.37-0.09-0.38-0.29c-0.29-4.44-0.44-6.66-0.74-11.11c-0.01-0.2,0.1-0.33,0.31-0.34c2.05-0.14,3.08-0.24,5.12-0.47
	c2.34-0.26,4.11,0.98,4.44,3.21c0.21,1.46-0.42,2.7-1.69,3.41c-0.09,0.04-0.1,0.11-0.05,0.18c1.1,1.61,1.67,2.4,2.83,3.99
	c0.15,0.22,0.05,0.37-0.21,0.4c-1.19,0.17-1.79,0.25-2.98,0.4C132.46,201.95,132.3,201.9,132.2,201.74 M128.35,193.41
	c0.07,0.74,0.1,1.12,0.17,1.86c0.01,0.08,0.07,0.13,0.15,0.12c0.65-0.06,0.97-0.1,1.62-0.17c0.77-0.08,1.23-0.56,1.16-1.2
	c-0.08-0.64-0.64-1.01-1.39-0.93c-0.64,0.07-0.95,0.1-1.59,0.16C128.39,193.27,128.34,193.33,128.35,193.41"/>
<path class="st7" d="M137.15,200.98c-0.69-4.4-1.04-6.6-1.73-10.99c-0.03-0.2,0.07-0.33,0.27-0.37c1.02-0.16,1.53-0.25,2.55-0.44
	c0.2-0.04,0.34,0.06,0.38,0.25c0.81,4.38,1.21,6.57,2.03,10.94c0.04,0.2-0.07,0.34-0.3,0.38c-1.12,0.2-1.68,0.3-2.8,0.48
	C137.33,201.27,137.18,201.18,137.15,200.98"/>
<path class="st7" d="M141.19,196.32c-0.26-1.33-0.39-2-0.65-3.33c-0.5-2.54,1.04-4.57,3.83-5.23c2.79-0.66,5.06,0.36,5.72,2.7
	c0.03,0.1-0.06,0.19-0.26,0.26c-1.02,0.35-1.53,0.52-2.56,0.85c-0.21,0.07-0.36,0.06-0.37,0.01c-0.01-0.04-0.01-0.06-0.02-0.1
	c-0.22-0.88-0.97-1.32-1.88-1.1c-0.91,0.22-1.38,0.94-1.18,1.83c0.32,1.41,0.47,2.12,0.79,3.53c0.19,0.87,0.96,1.32,1.93,1.09
	c0.96-0.23,1.45-0.98,1.23-1.84c-0.03-0.11,0.09-0.23,0.31-0.27c1.08-0.22,1.63-0.34,2.71-0.58c0.22-0.04,0.33-0.06,0.34-0.01
	c0.01,0.03,0.01,0.05,0.02,0.08c0.66,2.36-0.91,4.52-3.99,5.25C144.08,200.2,141.69,198.88,141.19,196.32"/>
<path class="st7" d="M161.06,194.91c-0.31-0.4-0.46-0.61-0.77-1.01c-0.04-0.06-0.13-0.08-0.2-0.05c-1.49,0.53-2.23,0.78-3.73,1.26
	c-0.07,0.02-0.13,0.09-0.13,0.16c0,0.51,0,0.76,0.01,1.27c0,0.2-0.1,0.32-0.3,0.38c-1.18,0.37-1.78,0.55-2.96,0.89
	c-0.24,0.07-0.4-0.03-0.4-0.27c0.3-4.71,0.39-7.07,0.42-11.75c0-0.18,0.09-0.31,0.27-0.37c1.37-0.44,2.04-0.67,3.4-1.15
	c0.18-0.06,0.33-0.01,0.44,0.13c2.87,3.7,4.37,5.51,7.49,9.07c0.16,0.19,0.08,0.37-0.15,0.46c-1.16,0.45-1.74,0.67-2.91,1.1
	C161.34,195.09,161.18,195.06,161.06,194.91 M156.37,192.56c0.87-0.29,1.31-0.43,2.18-0.74c0.09-0.03,0.12-0.11,0.07-0.18
	c-0.96-1.31-1.44-1.97-2.37-3.29c-0.07-0.1-0.17-0.07-0.17,0.06c0.06,1.62,0.08,2.43,0.12,4.05
	C156.21,192.54,156.28,192.59,156.37,192.56"/>
<path class="st0" d="M82.34,108l0.59-4.34c0.1-0.74-0.47-1.39-1.21-1.39H62.33l0-0.03l-6.56,0.03l-4.36,25.18l-0.47,2.69l-0.7,4.06
	l0.7,0v0.04h20.3c0.79,0,1.52-0.44,1.88-1.14l1.91-3.64c0.48-0.91-0.18-2.01-1.21-2.01H58.88l0.85-6.17h16.75
	c0.52,0,0.98-0.35,1.11-0.86l1.16-4.49c0.19-0.73-0.36-1.43-1.11-1.43H60.65l0.75-5.45h19.73C81.74,109.06,82.26,108.61,82.34,108"
	/>
<path class="st0" d="M99.61,137.61c-0.9,0-1.81-0.08-2.71-0.24c-4.32-0.77-8.05-3.3-10.51-7.13c-2.44-3.8-3.33-8.42-2.51-13.02
	c1.51-8.49,8.45-14.65,16.49-14.65c0.9,0,1.81,0.08,2.71,0.24c5.68,1.01,10.42,5.23,12.37,11c0.26,0.77,0.13,1.63-0.36,2.3
	c-0.44,0.6-1.14,0.96-1.89,0.96h-5.14c-0.93,0-1.73-0.64-1.94-1.57c-0.66-2.89-2.41-4.93-4.69-5.46c-0.38-0.09-0.77-0.13-1.15-0.13
	c-3.37,0-6.67,3.31-7.68,7.69c-1.16,5.03,0.92,9.82,4.63,10.68c0.38,0.09,0.77,0.13,1.15,0.13c2.83,0,5.68-2.34,7.09-5.81
	c0.43-1.06,1.44-1.75,2.57-1.75c0.29,0,0.57,0.05,0.85,0.13l4.65,1.52c0.71,0.23,1.3,0.75,1.63,1.42c0.33,0.68,0.37,1.44,0.12,2.14
	C112.76,132.97,106.47,137.61,99.61,137.61L99.61,137.61z"/>
<path class="st0" d="M130.15,135.04c-0.56,0-1.12-0.04-1.67-0.1c-3.89-0.49-7.33-2.61-9.68-5.98c-2.33-3.33-3.32-7.48-2.79-11.7
	c1.01-8.07,7.36-14.16,14.78-14.16c0.56,0,1.12,0.04,1.67,0.1c3.88,0.49,7.32,2.61,9.68,5.98c2.33,3.33,3.32,7.49,2.79,11.7
	C143.91,128.95,137.56,135.04,130.15,135.04C130.15,135.04,130.15,135.04,130.15,135.04 M130.66,111.25c-3.55,0-6.6,2.99-7.1,6.95
	c-0.54,4.28,2.12,8.15,5.93,8.63c0.26,0.03,0.52,0.05,0.78,0.05c3.55,0,6.6-2.99,7.1-6.95c0.26-2.1-0.23-4.15-1.37-5.79
	c-1.12-1.6-2.74-2.61-4.55-2.84C131.18,111.27,130.92,111.25,130.66,111.25"/>
<path class="st7" d="M112.89,140c-0.39,0.12-0.78,0.29-1.13,0.5c-1.19,0.69-2.12,1.74-3.06,2.75c-3.26,3.54-6.76,6.85-10.47,9.91
	c-0.86,0.71-2.08,1.43-3.01,0.8c3.87-4.56,8.15-8.77,12.77-12.57c0.32-0.27,0.68-0.61,0.63-1.02c-0.09-0.71-1.13-0.7-1.79-0.42
	c-3.9,1.68-6.23,5.6-9.1,8.73c-0.7,0.76-1.95,1.5-2.65,0.73c-0.25-0.27-0.32-0.66-0.32-1.02c0.01-1.39,0.96-2.59,1.96-3.57
	c1-0.98,2.12-1.9,2.65-3.19c0.53-1.29,0.19-3.08-1.11-3.58c-0.55-0.21-1.17-0.16-1.74-0.02c-1.73,0.41-3.25,1.6-4.08,3.17
	l-0.88-0.85c-0.93,1.17-2.69,1.04-4.18,1.18c-2.56,0.23-5.01,1.64-6.44,3.79c-1.06,1.6-1.55,3.51-2.52,5.17
	c-0.9,1.54-2.2,2.81-3.51,4.02c-1.8,1.67-3.65,3.27-5.56,4.81c-0.83,0.67-1.84,1.36-2.87,1.09c-0.75-0.2-1.28-0.88-1.63-1.58
	c-1.43-2.91-0.37-6.81,2.34-8.59c3.07-2.01,7.13-1.22,10.7-2.04c-2.35-2-4.7-4.01-7.05-6.01c4.89-0.85,9.91-1.74,14.17-4.29
	c1.62-0.96,3.21-2.32,3.58-4.16c0.56-2.77-2.01-5.39-4.79-5.93c-2.77-0.54-5.6,0.43-8.24,1.45c-0.56-0.85-0.22-1.98-0.31-3
	c-0.42-4.72-7.89,3.53-8.63,5c-1.4,2.78-1.46,6.38,0.46,8.83c-4.39-0.18-8.92-0.17-12.98,1.5c-4.06,1.67-7.58,5.37-7.76,9.76
	c2.82-3.51,6.69-6.38,11.14-7.06c5.88-0.9,11.6,2.07,17.48,2.95c-2.93-0.9-6.14-1.16-9.07-0.23c-2.93,0.92-5.52,3.15-6.44,6.08
	c-0.92,2.93,0.12,6.49,2.72,8.11c3.15,1.96,7.31,0.72,10.53-1.13c6.9-3.97,12.04-10.34,16.95-16.61c1.16,4-0.36,8.64-3.66,11.19
	c-0.71,0.55-1.51,1.02-2.04,1.74c-0.53,0.73-0.7,1.82-0.1,2.48c2.95-0.44,5.65-2.32,7.08-4.93c0.14,1.75,0.6,3.9,2.29,4.34
	c1.19,0.31,2.38-0.43,3.36-1.18c2.24-1.71,4.33-3.62,6.22-5.71c-1.52,2.47-2.98,5.03-3.77,7.83c-0.78,2.8-0.84,5.89,0.38,8.53
	c5.43-9.2,10.85-18.4,16.28-27.6C114.83,139.69,113.82,139.71,112.89,140 M81.27,131.09c4.52,1.51,2.55,2.78-0.65,3.37
	c-3.2,0.58-11.29,3.12-11.29,3.12C67.34,132.56,76.74,129.58,81.27,131.09"/>
<path class="st7" d="M115.29,143.94c0.03-0.01,0.06-0.02,0.09-0.03c0.13-0.06,0.22-0.17,0.31-0.28c0.42-0.49,0.88-0.96,1.46-1.24
	c0.58-0.28,1.3-0.34,1.86-0.02c0.48,0.28,0.79,0.81,0.9,1.35c0.11,0.55,0.04,1.12-0.09,1.66c-0.52,2.22-1.98,4.14-3.8,5.52
	c-1.81,1.38-3.97,2.25-6.16,2.85c-0.53,0.15-1.2,0.46-1.13,1.01c0.02,0.17,0.12,0.32,0.22,0.46c0.98,1.32,2.82,1.76,4.44,1.51
	c1.62-0.25,3.09-1.09,4.49-1.94c-1.87,0.36-3.75,0.7-5.65,0.67c-0.68-0.01-1.41-0.09-1.93-0.52c1.84-0.24,3.69-0.47,5.49-0.89
	c2.79-0.65,5.61-1.84,7.33-4.12c1.02-1.37,1.58-3.04,1.79-4.74c0.17-1.4,0.09-2.93-0.75-4.06c-0.77-1.04-2.08-1.58-3.37-1.64
	c-2.2-0.1-4.9,0.92-5.99,2.94c-0.17,0.31-0.31,0.67-0.22,1.02C114.65,143.75,114.98,144.01,115.29,143.94"/>
<path class="st7" d="M141.13,141.45c-0.19-1.07-0.58-2.26-1.58-2.7c-1.15-0.5-2.44,0.26-3.69,0.32c-0.21,0.01-0.44-0.01-0.65-0.06
	c-0.27-0.06-0.53-0.17-0.8-0.23c-2.91-0.62-5.83,3.17-7.14,5.27c-1.57,2.54-2.48,5.5-2.51,8.5c-0.01,1.45,0.2,3.01,1.15,4.11
	c1.29,1.49,3.5,1.73,5.47,1.65c1.16-0.05,2.34-0.18,3.4-0.65c0.69-0.31,1.32-0.77,1.89-1.28
	C140.74,152.77,142.11,146.78,141.13,141.45 M130.65,156.81c0,0-2.96-1.35,0-6.64c2.96-5.31,3.17-8.35,3.17-8.35s0.14-2.09,1.7-1.83
	c0,0,2.87,0.61,2.78,4.43C138.21,148.24,136.12,156.33,130.65,156.81"/>
<path class="st7" d="M147.78,137.03c0,0,2.61-1.78,2.96,0.55c0.35,2.32-0.96,7.63-0.96,7.63l-1.21,4.17l3.29-5.13
	c0,0-0.7-5.34,2.43-6.67c3.13-1.33,5.74,0.58,2.09,4.24l7.83-4.96l2.52,3.11c0,0-10.23,9.24-9.77,15.5c0,0,7.85-7.3,13.51-13.74
	l4.87-6l-6.17,0.78c0,0,1.13-4.78,9.82-5.3c0,0,0.35-5.83,4.78-4.35l0.7,0.78c0,0,3.04-1.39,3.91,1.04
	c0.87,2.44,1.13,5.52-5.83,5.45c0,0-11.22,15.24-12.52,17.5s-2.78,4.87-1.74,5.17c1.04,0.31,6.43,0.32,12.95-10.55
	c0,0,1.74-0.18-0.7,3.73c-2.43,3.91-8.09,12.24-14.87,8.34c0,0-4.43-1.56-0.7-7.38c0,0-0.78-0.43-3.3,3.48
	c-2.52,3.91-9.65,4.78-8.87-1.3c0,0,0.61-5.11,2.96-6.86c0,0,0.61-3.9-2.96,0.87c-3.57,4.77-8.61,10.34-8.35,11.56
	c0.26,1.22-6.26,0.7-3.04-4.26c3.22-4.96,6.61-10,6.61-10S142.74,139.46,147.78,137.03"/>
<path class="st7" d="M60.07,147.72c0,0-10.11,7.65-8.02,14c0,0,0.26,3.04,11.22,2.43c0,0-2.17,5.91-12.26,1.83
	C40.92,161.89,51.02,146.14,60.07,147.72"/>
<path class="st0" d="M152.5,99.5c-2.55,0.85-6.32,1.62-10.76,2.32c-2.54-1.89-5.49-3.09-8.68-3.49c-0.76-0.09-1.52-0.14-2.28-0.14
	c-5.49,0-10.54,2.45-14.15,6.44c-1.36,0.11-2.71,0.23-4.04,0.33c-2.53-2.35-5.66-3.95-9.08-4.57c-1.03-0.18-2.08-0.28-3.14-0.28
	c-5.49,0-10.54,2.48-14.07,6.54c-0.59,0.02-0.9,0.04-0.9,0.04c5.86-12.85,30.32-15.73,30.32-15.73
	C141.5,87.79,152.5,99.5,152.5,99.5"/>
</svg>
